<mxfile host="65bd71144e">
    <diagram id="geETxxW1eVzZmMATx1TT" name="第 1 页">
        <mxGraphModel dx="4174" dy="3089" grid="1" gridSize="10" guides="1" tooltips="1" connect="1" arrows="0" fold="1" page="1" pageScale="1" pageWidth="827" pageHeight="1169" math="0" shadow="0">
            <root>
                <mxCell id="0"/>
                <mxCell id="1" parent="0"/>
                <mxCell id="i2Tj7C190F3AamKAbhBU-1" value="http://ctms.kurumirwe.com.cn/api/" style="rounded=0;whiteSpace=wrap;html=1;fontSize=16;align=left;" parent="1" vertex="1">
                    <mxGeometry x="22.5" y="-180" width="397.5" height="20" as="geometry"/>
                </mxCell>
                <mxCell id="i2Tj7C190F3AamKAbhBU-7" value="http://ins.kurumirwe.com.cn/" style="whiteSpace=wrap;html=1;fontSize=16;align=left;" parent="1" vertex="1">
                    <mxGeometry x="20" y="1039.5" width="400" height="21" as="geometry"/>
                </mxCell>
                <mxCell id="i2Tj7C190F3AamKAbhBU-16" value="nginx" style="swimlane;whiteSpace=wrap;html=1;fontSize=16;startSize=30;swimlaneFillColor=none;gradientColor=none;dashed=1;strokeWidth=2;strokeColor=#808080;" parent="1" vertex="1">
                    <mxGeometry x="481" y="-280.5" width="60" height="1600" as="geometry"/>
                </mxCell>
                <mxCell id="i2Tj7C190F3AamKAbhBU-2" value="&lt;b&gt;172.16.1.61&lt;/b&gt;" style="rounded=0;whiteSpace=wrap;html=1;fontSize=16;horizontal=0;strokeWidth=2;" parent="i2Tj7C190F3AamKAbhBU-16" vertex="1">
                    <mxGeometry x="10" y="470" width="40" height="910" as="geometry"/>
                </mxCell>
                <mxCell id="i2Tj7C190F3AamKAbhBU-9" value="&lt;b&gt;172.16.1.37&lt;/b&gt;" style="rounded=0;whiteSpace=wrap;html=1;fontSize=16;horizontal=0;strokeWidth=2;" parent="i2Tj7C190F3AamKAbhBU-16" vertex="1">
                    <mxGeometry x="10" y="1440" width="40" height="140" as="geometry"/>
                </mxCell>
                <mxCell id="i2Tj7C190F3AamKAbhBU-3" value="172.16.1.35" style="rounded=0;whiteSpace=wrap;html=1;fontSize=16;horizontal=0;strokeWidth=2;" parent="i2Tj7C190F3AamKAbhBU-16" vertex="1">
                    <mxGeometry x="10" y="50" width="40" height="320" as="geometry"/>
                </mxCell>
                <mxCell id="i2Tj7C190F3AamKAbhBU-19" value="前端" style="swimlane;whiteSpace=wrap;html=1;fontSize=16;startSize=30;swimlaneFillColor=none;gradientColor=none;dashed=1;strokeWidth=2;align=left;strokeColor=#000000;" parent="1" vertex="1">
                    <mxGeometry x="580" y="-281.5" width="320" height="1601" as="geometry"/>
                </mxCell>
                <mxCell id="i2Tj7C190F3AamKAbhBU-26" value="172.16.1.35&lt;br&gt;/usr/share/nginx/html" style="whiteSpace=wrap;html=1;fontSize=16;" parent="i2Tj7C190F3AamKAbhBU-19" vertex="1">
                    <mxGeometry x="39.5" y="62" width="241" height="40" as="geometry"/>
                </mxCell>
                <mxCell id="i2Tj7C190F3AamKAbhBU-50" value="172.16.1.35&lt;br&gt;/usr/share/nginx/ctms-pre" style="whiteSpace=wrap;html=1;fontSize=16;strokeWidth=2;" parent="i2Tj7C190F3AamKAbhBU-19" vertex="1">
                    <mxGeometry x="39.5" y="241" width="241" height="40" as="geometry"/>
                </mxCell>
                <mxCell id="i2Tj7C190F3AamKAbhBU-69" value="172.16.1.37&lt;br&gt;/usr/share/nginx/questionnaire/doctor" style="whiteSpace=wrap;html=1;fontSize=16;" parent="i2Tj7C190F3AamKAbhBU-19" vertex="1">
                    <mxGeometry x="19.25" y="1471" width="271.5" height="40" as="geometry"/>
                </mxCell>
                <mxCell id="i2Tj7C190F3AamKAbhBU-70" value="172.16.1.37&lt;br&gt;/usr/share/nginx/questionnaire/paint" style="whiteSpace=wrap;html=1;fontSize=16;" parent="i2Tj7C190F3AamKAbhBU-19" vertex="1">
                    <mxGeometry x="19.25" y="1511" width="271.5" height="40" as="geometry"/>
                </mxCell>
                <mxCell id="cCwPJ1tw8frTHu7wozhd-297" value="insightec-test" style="rounded=0;whiteSpace=wrap;html=1;fontSize=16;" parent="i2Tj7C190F3AamKAbhBU-19" vertex="1">
                    <mxGeometry x="119" y="1321" width="120" height="19" as="geometry"/>
                </mxCell>
                <mxCell id="i2Tj7C190F3AamKAbhBU-113" value="x.conf" style="rounded=0;whiteSpace=wrap;html=1;fontSize=16;rotation=-90;dashed=1;dashPattern=1 1;" parent="i2Tj7C190F3AamKAbhBU-19" vertex="1">
                    <mxGeometry x="-94" y="839" width="55" height="20" as="geometry"/>
                </mxCell>
                <mxCell id="cCwPJ1tw8frTHu7wozhd-9" value="&lt;b style=&quot;border-color: var(--border-color);&quot;&gt;&lt;font style=&quot;border-color: var(--border-color); font-size: 17px;&quot;&gt;k8s rwe1-dev&lt;/font&gt;&lt;/b&gt;" style="swimlane;whiteSpace=wrap;html=1;fontSize=16;align=left;startSize=21;" parent="i2Tj7C190F3AamKAbhBU-19" vertex="1">
                    <mxGeometry x="20" y="481" width="600" height="381" as="geometry"/>
                </mxCell>
                <mxCell id="i2Tj7C190F3AamKAbhBU-24" style="edgeStyle=none;curved=1;rounded=0;orthogonalLoop=1;jettySize=auto;html=1;fontSize=12;startSize=8;endSize=8;exitX=1;exitY=0.5;exitDx=0;exitDy=0;" parent="1" source="i2Tj7C190F3AamKAbhBU-1" target="i2Tj7C190F3AamKAbhBU-14" edge="1">
                    <mxGeometry relative="1" as="geometry">
                        <mxPoint x="301" y="-169.5" as="sourcePoint"/>
                    </mxGeometry>
                </mxCell>
                <mxCell id="cCwPJ1tw8frTHu7wozhd-179" style="edgeStyle=none;curved=1;rounded=0;orthogonalLoop=1;jettySize=auto;html=1;exitX=0.5;exitY=0;exitDx=0;exitDy=0;entryX=0.5;entryY=1;entryDx=0;entryDy=0;fontSize=12;startSize=8;endSize=8;" parent="1" source="i2Tj7C190F3AamKAbhBU-20" target="cCwPJ1tw8frTHu7wozhd-178" edge="1">
                    <mxGeometry relative="1" as="geometry"/>
                </mxCell>
                <mxCell id="i2Tj7C190F3AamKAbhBU-20" value="后端" style="swimlane;whiteSpace=wrap;html=1;fontSize=16;startSize=30;swimlaneFillColor=none;gradientColor=none;dashed=1;strokeWidth=2;strokeColor=#808080;fillColor=#808080;" parent="1" vertex="1">
                    <mxGeometry x="940" y="-281" width="280" height="1601" as="geometry"/>
                </mxCell>
                <mxCell id="i2Tj7C190F3AamKAbhBU-34" value="172.16.1.35&amp;nbsp;/root/pm" style="swimlane;whiteSpace=wrap;html=1;fontSize=16;startSize=20;" parent="i2Tj7C190F3AamKAbhBU-20" vertex="1">
                    <mxGeometry x="20" y="60.5" width="240" height="119" as="geometry"/>
                </mxCell>
                <mxCell id="i2Tj7C190F3AamKAbhBU-31" value="sys" style="whiteSpace=wrap;html=1;fontSize=16;" parent="i2Tj7C190F3AamKAbhBU-34" vertex="1">
                    <mxGeometry x="60" y="80" width="40" height="20" as="geometry"/>
                </mxCell>
                <mxCell id="i2Tj7C190F3AamKAbhBU-30" value="auth" style="whiteSpace=wrap;html=1;fontSize=16;" parent="i2Tj7C190F3AamKAbhBU-34" vertex="1">
                    <mxGeometry x="20" y="80" width="40" height="20" as="geometry"/>
                </mxCell>
                <mxCell id="i2Tj7C190F3AamKAbhBU-32" value="uam" style="whiteSpace=wrap;html=1;fontSize=16;" parent="i2Tj7C190F3AamKAbhBU-34" vertex="1">
                    <mxGeometry x="100" y="80" width="40" height="20" as="geometry"/>
                </mxCell>
                <mxCell id="i2Tj7C190F3AamKAbhBU-33" value="pahseone" style="whiteSpace=wrap;html=1;fontSize=16;" parent="i2Tj7C190F3AamKAbhBU-34" vertex="1">
                    <mxGeometry x="140" y="80" width="80" height="20" as="geometry"/>
                </mxCell>
                <mxCell id="i2Tj7C190F3AamKAbhBU-36" style="edgeStyle=none;curved=1;rounded=0;orthogonalLoop=1;jettySize=auto;html=1;exitX=0.5;exitY=0;exitDx=0;exitDy=0;entryX=0.5;entryY=0;entryDx=0;entryDy=0;fontSize=12;startSize=8;endSize=8;" parent="i2Tj7C190F3AamKAbhBU-34" source="i2Tj7C190F3AamKAbhBU-14" target="i2Tj7C190F3AamKAbhBU-31" edge="1">
                    <mxGeometry relative="1" as="geometry"/>
                </mxCell>
                <mxCell id="i2Tj7C190F3AamKAbhBU-37" style="edgeStyle=none;curved=1;rounded=0;orthogonalLoop=1;jettySize=auto;html=1;exitX=0.5;exitY=0;exitDx=0;exitDy=0;entryX=0.5;entryY=0;entryDx=0;entryDy=0;fontSize=12;startSize=8;endSize=8;" parent="i2Tj7C190F3AamKAbhBU-34" source="i2Tj7C190F3AamKAbhBU-14" target="i2Tj7C190F3AamKAbhBU-30" edge="1">
                    <mxGeometry relative="1" as="geometry"/>
                </mxCell>
                <mxCell id="i2Tj7C190F3AamKAbhBU-38" style="edgeStyle=none;curved=1;rounded=0;orthogonalLoop=1;jettySize=auto;html=1;exitX=0.5;exitY=0;exitDx=0;exitDy=0;fontSize=12;startSize=8;endSize=8;" parent="i2Tj7C190F3AamKAbhBU-34" source="i2Tj7C190F3AamKAbhBU-14" edge="1">
                    <mxGeometry relative="1" as="geometry">
                        <mxPoint x="120" y="80" as="targetPoint"/>
                    </mxGeometry>
                </mxCell>
                <mxCell id="i2Tj7C190F3AamKAbhBU-39" style="edgeStyle=none;curved=1;rounded=0;orthogonalLoop=1;jettySize=auto;html=1;exitX=0.5;exitY=0;exitDx=0;exitDy=0;entryX=0.5;entryY=0;entryDx=0;entryDy=0;fontSize=12;startSize=8;endSize=8;" parent="i2Tj7C190F3AamKAbhBU-34" source="i2Tj7C190F3AamKAbhBU-14" target="i2Tj7C190F3AamKAbhBU-33" edge="1">
                    <mxGeometry relative="1" as="geometry"/>
                </mxCell>
                <mxCell id="i2Tj7C190F3AamKAbhBU-14" value="gateway" style="whiteSpace=wrap;html=1;fontSize=16;" parent="i2Tj7C190F3AamKAbhBU-34" vertex="1">
                    <mxGeometry x="20" y="40" width="200" height="20" as="geometry"/>
                </mxCell>
                <mxCell id="i2Tj7C190F3AamKAbhBU-51" value="172.16.1.37&amp;nbsp;/root/ctms-pre" style="swimlane;whiteSpace=wrap;html=1;fontSize=16;startSize=20;" parent="i2Tj7C190F3AamKAbhBU-20" vertex="1">
                    <mxGeometry x="20" y="239" width="240" height="120" as="geometry"/>
                </mxCell>
                <mxCell id="i2Tj7C190F3AamKAbhBU-52" value="sys" style="whiteSpace=wrap;html=1;fontSize=16;" parent="i2Tj7C190F3AamKAbhBU-51" vertex="1">
                    <mxGeometry x="60" y="80" width="40" height="20" as="geometry"/>
                </mxCell>
                <mxCell id="i2Tj7C190F3AamKAbhBU-53" value="auth" style="whiteSpace=wrap;html=1;fontSize=16;" parent="i2Tj7C190F3AamKAbhBU-51" vertex="1">
                    <mxGeometry x="20" y="80" width="40" height="20" as="geometry"/>
                </mxCell>
                <mxCell id="i2Tj7C190F3AamKAbhBU-54" value="uam" style="whiteSpace=wrap;html=1;fontSize=16;" parent="i2Tj7C190F3AamKAbhBU-51" vertex="1">
                    <mxGeometry x="100" y="80" width="40" height="20" as="geometry"/>
                </mxCell>
                <mxCell id="i2Tj7C190F3AamKAbhBU-55" value="pahseone" style="whiteSpace=wrap;html=1;fontSize=16;" parent="i2Tj7C190F3AamKAbhBU-51" vertex="1">
                    <mxGeometry x="140" y="80" width="80" height="20" as="geometry"/>
                </mxCell>
                <mxCell id="i2Tj7C190F3AamKAbhBU-56" style="edgeStyle=none;curved=1;rounded=0;orthogonalLoop=1;jettySize=auto;html=1;exitX=0.5;exitY=0;exitDx=0;exitDy=0;entryX=0.5;entryY=0;entryDx=0;entryDy=0;fontSize=12;startSize=8;endSize=8;" parent="i2Tj7C190F3AamKAbhBU-51" source="i2Tj7C190F3AamKAbhBU-60" target="i2Tj7C190F3AamKAbhBU-52" edge="1">
                    <mxGeometry relative="1" as="geometry"/>
                </mxCell>
                <mxCell id="i2Tj7C190F3AamKAbhBU-57" style="edgeStyle=none;curved=1;rounded=0;orthogonalLoop=1;jettySize=auto;html=1;exitX=0.5;exitY=0;exitDx=0;exitDy=0;entryX=0.5;entryY=0;entryDx=0;entryDy=0;fontSize=12;startSize=8;endSize=8;" parent="i2Tj7C190F3AamKAbhBU-51" source="i2Tj7C190F3AamKAbhBU-60" target="i2Tj7C190F3AamKAbhBU-53" edge="1">
                    <mxGeometry relative="1" as="geometry"/>
                </mxCell>
                <mxCell id="i2Tj7C190F3AamKAbhBU-58" style="edgeStyle=none;curved=1;rounded=0;orthogonalLoop=1;jettySize=auto;html=1;exitX=0.5;exitY=0;exitDx=0;exitDy=0;fontSize=12;startSize=8;endSize=8;" parent="i2Tj7C190F3AamKAbhBU-51" source="i2Tj7C190F3AamKAbhBU-60" edge="1">
                    <mxGeometry relative="1" as="geometry">
                        <mxPoint x="120" y="80" as="targetPoint"/>
                    </mxGeometry>
                </mxCell>
                <mxCell id="i2Tj7C190F3AamKAbhBU-59" style="edgeStyle=none;curved=1;rounded=0;orthogonalLoop=1;jettySize=auto;html=1;exitX=0.5;exitY=0;exitDx=0;exitDy=0;entryX=0.5;entryY=0;entryDx=0;entryDy=0;fontSize=12;startSize=8;endSize=8;" parent="i2Tj7C190F3AamKAbhBU-51" source="i2Tj7C190F3AamKAbhBU-60" target="i2Tj7C190F3AamKAbhBU-55" edge="1">
                    <mxGeometry relative="1" as="geometry"/>
                </mxCell>
                <mxCell id="i2Tj7C190F3AamKAbhBU-60" value="gateway" style="whiteSpace=wrap;html=1;fontSize=16;" parent="i2Tj7C190F3AamKAbhBU-51" vertex="1">
                    <mxGeometry x="20" y="40" width="200" height="20" as="geometry"/>
                </mxCell>
                <mxCell id="i2Tj7C190F3AamKAbhBU-76" value="insightec-test" style="whiteSpace=wrap;html=1;fontSize=16;" parent="i2Tj7C190F3AamKAbhBU-20" vertex="1">
                    <mxGeometry x="60" y="1341.5" width="120" height="19" as="geometry"/>
                </mxCell>
                <mxCell id="i2Tj7C190F3AamKAbhBU-67" value="172.16.1.37&lt;br&gt;/root/pm/" style="whiteSpace=wrap;html=1;fontSize=16;" parent="i2Tj7C190F3AamKAbhBU-20" vertex="1">
                    <mxGeometry x="39" y="1540.5" width="190" height="40" as="geometry"/>
                </mxCell>
                <mxCell id="i2Tj7C190F3AamKAbhBU-91" value="k8s ht-common-dev" style="swimlane;whiteSpace=wrap;html=1;fontSize=16;startSize=20;" parent="i2Tj7C190F3AamKAbhBU-20" vertex="1">
                    <mxGeometry x="20" y="881" width="240" height="140" as="geometry"/>
                </mxCell>
                <mxCell id="i2Tj7C190F3AamKAbhBU-92" value="sys" style="whiteSpace=wrap;html=1;fontSize=16;" parent="i2Tj7C190F3AamKAbhBU-91" vertex="1">
                    <mxGeometry x="140" y="40" width="40" height="20" as="geometry"/>
                </mxCell>
                <mxCell id="i2Tj7C190F3AamKAbhBU-93" value="auth" style="whiteSpace=wrap;html=1;fontSize=16;" parent="i2Tj7C190F3AamKAbhBU-91" vertex="1">
                    <mxGeometry x="60" y="40" width="40" height="20" as="geometry"/>
                </mxCell>
                <mxCell id="i2Tj7C190F3AamKAbhBU-94" value="uam" style="whiteSpace=wrap;html=1;fontSize=16;" parent="i2Tj7C190F3AamKAbhBU-91" vertex="1">
                    <mxGeometry x="100" y="40" width="40" height="20" as="geometry"/>
                </mxCell>
                <mxCell id="cCwPJ1tw8frTHu7wozhd-203" style="edgeStyle=none;curved=1;rounded=0;orthogonalLoop=1;jettySize=auto;html=1;exitX=0.5;exitY=1;exitDx=0;exitDy=0;entryX=0.5;entryY=1;entryDx=0;entryDy=0;fontSize=12;startSize=8;endSize=8;" parent="i2Tj7C190F3AamKAbhBU-91" source="i2Tj7C190F3AamKAbhBU-100" target="i2Tj7C190F3AamKAbhBU-94" edge="1">
                    <mxGeometry relative="1" as="geometry"/>
                </mxCell>
                <mxCell id="cCwPJ1tw8frTHu7wozhd-204" style="edgeStyle=none;curved=1;rounded=0;orthogonalLoop=1;jettySize=auto;html=1;exitX=0.5;exitY=1;exitDx=0;exitDy=0;entryX=0.5;entryY=1;entryDx=0;entryDy=0;fontSize=12;startSize=8;endSize=8;" parent="i2Tj7C190F3AamKAbhBU-91" source="i2Tj7C190F3AamKAbhBU-100" target="i2Tj7C190F3AamKAbhBU-92" edge="1">
                    <mxGeometry relative="1" as="geometry"/>
                </mxCell>
                <mxCell id="cCwPJ1tw8frTHu7wozhd-205" style="edgeStyle=none;curved=1;rounded=0;orthogonalLoop=1;jettySize=auto;html=1;exitX=0.5;exitY=1;exitDx=0;exitDy=0;entryX=0.5;entryY=1;entryDx=0;entryDy=0;fontSize=12;startSize=8;endSize=8;" parent="i2Tj7C190F3AamKAbhBU-91" source="i2Tj7C190F3AamKAbhBU-100" target="i2Tj7C190F3AamKAbhBU-93" edge="1">
                    <mxGeometry relative="1" as="geometry"/>
                </mxCell>
                <mxCell id="i2Tj7C190F3AamKAbhBU-100" value="gateway" style="whiteSpace=wrap;html=1;fontSize=16;" parent="i2Tj7C190F3AamKAbhBU-91" vertex="1">
                    <mxGeometry x="20" y="80" width="200" height="20" as="geometry"/>
                </mxCell>
                <mxCell id="i2Tj7C190F3AamKAbhBU-104" value="clinical-trials" style="whiteSpace=wrap;html=1;fontSize=16;align=center;strokeWidth=2;" parent="i2Tj7C190F3AamKAbhBU-20" vertex="1">
                    <mxGeometry x="-320" y="581" width="240" height="40.5" as="geometry"/>
                </mxCell>
                <mxCell id="i2Tj7C190F3AamKAbhBU-107" value="integrated-platform" style="whiteSpace=wrap;html=1;fontSize=16;strokeWidth=2;" parent="i2Tj7C190F3AamKAbhBU-20" vertex="1">
                    <mxGeometry x="-320" y="521" width="240" height="40.5" as="geometry"/>
                </mxCell>
                <mxCell id="i2Tj7C190F3AamKAbhBU-108" value="phase-one" style="whiteSpace=wrap;html=1;fontSize=16;align=center;strokeWidth=2;" parent="i2Tj7C190F3AamKAbhBU-20" vertex="1">
                    <mxGeometry x="-320" y="641.75" width="240" height="40" as="geometry"/>
                </mxCell>
                <mxCell id="i2Tj7C190F3AamKAbhBU-140" value="phaseone" style="whiteSpace=wrap;html=1;fontSize=16;strokeWidth=2;" parent="i2Tj7C190F3AamKAbhBU-20" vertex="1">
                    <mxGeometry x="40" y="641.75" width="180" height="39.12" as="geometry"/>
                </mxCell>
                <mxCell id="i2Tj7C190F3AamKAbhBU-138" value="common-survey" style="whiteSpace=wrap;html=1;fontSize=16;strokeWidth=2;" parent="i2Tj7C190F3AamKAbhBU-20" vertex="1">
                    <mxGeometry x="40" y="761.75" width="180" height="39.12" as="geometry"/>
                </mxCell>
                <mxCell id="i2Tj7C190F3AamKAbhBU-139" value="oims" style="whiteSpace=wrap;html=1;fontSize=16;strokeWidth=2;" parent="i2Tj7C190F3AamKAbhBU-20" vertex="1">
                    <mxGeometry x="40" y="581" width="180" height="40" as="geometry"/>
                </mxCell>
                <mxCell id="i2Tj7C190F3AamKAbhBU-141" value="rms" style="whiteSpace=wrap;html=1;fontSize=16;strokeWidth=2;" parent="i2Tj7C190F3AamKAbhBU-20" vertex="1">
                    <mxGeometry x="40" y="701.75" width="180" height="39.12" as="geometry"/>
                </mxCell>
                <mxCell id="i2Tj7C190F3AamKAbhBU-109" value="remote-monitoring" style="whiteSpace=wrap;html=1;fontSize=16;align=center;strokeWidth=2;" parent="i2Tj7C190F3AamKAbhBU-20" vertex="1">
                    <mxGeometry x="-320" y="701.75" width="240" height="40" as="geometry"/>
                </mxCell>
                <mxCell id="i2Tj7C190F3AamKAbhBU-106" value="commonsurvey" style="whiteSpace=wrap;html=1;fontSize=16;align=center;strokeWidth=2;" parent="i2Tj7C190F3AamKAbhBU-20" vertex="1">
                    <mxGeometry x="-320" y="761.75" width="240" height="40" as="geometry"/>
                </mxCell>
                <mxCell id="cCwPJ1tw8frTHu7wozhd-189" value="rms_dev" style="whiteSpace=wrap;html=1;fontSize=16;strokeWidth=2;" parent="i2Tj7C190F3AamKAbhBU-20" vertex="1">
                    <mxGeometry x="340" y="701.12" width="160" height="40" as="geometry"/>
                </mxCell>
                <mxCell id="cCwPJ1tw8frTHu7wozhd-184" value="oims_dev" style="whiteSpace=wrap;html=1;fontSize=16;strokeWidth=2;" parent="i2Tj7C190F3AamKAbhBU-20" vertex="1">
                    <mxGeometry x="340" y="581.12" width="160" height="40" as="geometry"/>
                </mxCell>
                <mxCell id="cCwPJ1tw8frTHu7wozhd-186" value="phaseone_dev" style="whiteSpace=wrap;html=1;fontSize=16;strokeWidth=2;" parent="i2Tj7C190F3AamKAbhBU-20" vertex="1">
                    <mxGeometry x="340" y="641.12" width="160" height="40" as="geometry"/>
                </mxCell>
                <mxCell id="cCwPJ1tw8frTHu7wozhd-180" value="common_survey_dev" style="whiteSpace=wrap;html=1;fontSize=16;strokeWidth=2;" parent="i2Tj7C190F3AamKAbhBU-20" vertex="1">
                    <mxGeometry x="340" y="761.12" width="160" height="40" as="geometry"/>
                </mxCell>
                <mxCell id="cCwPJ1tw8frTHu7wozhd-280" style="edgeStyle=none;curved=1;rounded=0;orthogonalLoop=1;jettySize=auto;html=1;exitX=1;exitY=0.5;exitDx=0;exitDy=0;fontSize=12;startSize=8;endSize=8;fillColor=#1ba1e2;strokeColor=#006EAF;" parent="i2Tj7C190F3AamKAbhBU-20" source="i2Tj7C190F3AamKAbhBU-141" target="cCwPJ1tw8frTHu7wozhd-189" edge="1">
                    <mxGeometry relative="1" as="geometry"/>
                </mxCell>
                <mxCell id="cCwPJ1tw8frTHu7wozhd-281" style="edgeStyle=none;curved=1;rounded=0;orthogonalLoop=1;jettySize=auto;html=1;exitX=1;exitY=0.5;exitDx=0;exitDy=0;fontSize=12;startSize=8;endSize=8;fillColor=#1ba1e2;strokeColor=#006EAF;" parent="i2Tj7C190F3AamKAbhBU-20" source="i2Tj7C190F3AamKAbhBU-139" target="cCwPJ1tw8frTHu7wozhd-184" edge="1">
                    <mxGeometry relative="1" as="geometry"/>
                </mxCell>
                <mxCell id="cCwPJ1tw8frTHu7wozhd-283" style="edgeStyle=none;curved=1;rounded=0;orthogonalLoop=1;jettySize=auto;html=1;exitX=1;exitY=0.5;exitDx=0;exitDy=0;fontSize=12;startSize=8;endSize=8;fillColor=#1ba1e2;strokeColor=#006EAF;" parent="i2Tj7C190F3AamKAbhBU-20" source="i2Tj7C190F3AamKAbhBU-140" target="cCwPJ1tw8frTHu7wozhd-186" edge="1">
                    <mxGeometry relative="1" as="geometry"/>
                </mxCell>
                <mxCell id="cCwPJ1tw8frTHu7wozhd-282" style="edgeStyle=none;curved=1;rounded=0;orthogonalLoop=1;jettySize=auto;html=1;exitX=1;exitY=0.5;exitDx=0;exitDy=0;entryX=0;entryY=0.5;entryDx=0;entryDy=0;fontSize=12;startSize=8;endSize=8;fillColor=#1ba1e2;strokeColor=#006EAF;" parent="i2Tj7C190F3AamKAbhBU-20" source="i2Tj7C190F3AamKAbhBU-138" target="cCwPJ1tw8frTHu7wozhd-180" edge="1">
                    <mxGeometry relative="1" as="geometry"/>
                </mxCell>
                <mxCell id="DoMO-JeSw2nu9P5x8Yg7-1" style="edgeStyle=orthogonalEdgeStyle;rounded=0;orthogonalLoop=1;jettySize=auto;html=1;exitX=0.5;exitY=1;exitDx=0;exitDy=0;" parent="i2Tj7C190F3AamKAbhBU-20" source="cCwPJ1tw8frTHu7wozhd-186" edge="1">
                    <mxGeometry relative="1" as="geometry">
                        <mxPoint x="419.9565217391305" y="671.37" as="targetPoint"/>
                    </mxGeometry>
                </mxCell>
                <mxCell id="cCwPJ1tw8frTHu7wozhd-8" value="" style="swimlane;startSize=0;fontSize=16;dashed=1;fillColor=#e51400;fontColor=#ffffff;strokeColor=#B20000;strokeWidth=2;" parent="i2Tj7C190F3AamKAbhBU-20" vertex="1">
                    <mxGeometry x="20" y="520" width="220" height="300.87" as="geometry"/>
                </mxCell>
                <mxCell id="i2Tj7C190F3AamKAbhBU-146" style="edgeStyle=elbowEdgeStyle;orthogonalLoop=1;jettySize=auto;html=1;exitX=0;exitY=0.5;exitDx=0;exitDy=0;entryX=0;entryY=0.5;entryDx=0;entryDy=0;fontSize=12;startSize=8;endSize=8;rounded=0;" parent="i2Tj7C190F3AamKAbhBU-20" source="i2Tj7C190F3AamKAbhBU-100" target="i2Tj7C190F3AamKAbhBU-140" edge="1">
                    <mxGeometry relative="1" as="geometry">
                        <Array as="points">
                            <mxPoint x="-19" y="821"/>
                            <mxPoint x="261" y="691"/>
                            <mxPoint x="341" y="722"/>
                            <mxPoint x="331" y="722"/>
                            <mxPoint x="301" y="792"/>
                        </Array>
                    </mxGeometry>
                </mxCell>
                <mxCell id="i2Tj7C190F3AamKAbhBU-143" style="edgeStyle=elbowEdgeStyle;rounded=0;orthogonalLoop=1;jettySize=auto;html=1;fontSize=12;startSize=8;endSize=8;entryX=0;entryY=0.5;entryDx=0;entryDy=0;exitX=0;exitY=0.5;exitDx=0;exitDy=0;" parent="i2Tj7C190F3AamKAbhBU-20" source="i2Tj7C190F3AamKAbhBU-100" target="i2Tj7C190F3AamKAbhBU-138" edge="1">
                    <mxGeometry relative="1" as="geometry">
                        <mxPoint x="271" y="582" as="targetPoint"/>
                        <Array as="points">
                            <mxPoint x="-19" y="831"/>
                            <mxPoint x="261" y="651"/>
                            <mxPoint x="341" y="672"/>
                            <mxPoint x="301" y="772"/>
                        </Array>
                        <mxPoint x="71" y="861" as="sourcePoint"/>
                    </mxGeometry>
                </mxCell>
                <mxCell id="i2Tj7C190F3AamKAbhBU-145" style="edgeStyle=elbowEdgeStyle;rounded=0;orthogonalLoop=1;jettySize=auto;html=1;entryX=0;entryY=0.5;entryDx=0;entryDy=0;fontSize=12;startSize=8;endSize=8;exitX=0;exitY=0.5;exitDx=0;exitDy=0;" parent="i2Tj7C190F3AamKAbhBU-20" source="i2Tj7C190F3AamKAbhBU-100" target="i2Tj7C190F3AamKAbhBU-139" edge="1">
                    <mxGeometry relative="1" as="geometry">
                        <Array as="points">
                            <mxPoint x="-19" y="801"/>
                            <mxPoint x="261" y="671"/>
                            <mxPoint x="341" y="672"/>
                            <mxPoint x="301" y="772"/>
                        </Array>
                        <mxPoint x="101" y="871" as="sourcePoint"/>
                    </mxGeometry>
                </mxCell>
                <mxCell id="cCwPJ1tw8frTHu7wozhd-5" style="edgeStyle=elbowEdgeStyle;rounded=0;orthogonalLoop=1;jettySize=auto;html=1;entryX=0;entryY=0.5;entryDx=0;entryDy=0;fontSize=12;startSize=8;endSize=8;exitX=0;exitY=0.5;exitDx=0;exitDy=0;" parent="i2Tj7C190F3AamKAbhBU-20" source="i2Tj7C190F3AamKAbhBU-100" target="i2Tj7C190F3AamKAbhBU-141" edge="1">
                    <mxGeometry relative="1" as="geometry">
                        <mxPoint x="71" y="861" as="sourcePoint"/>
                        <Array as="points">
                            <mxPoint x="-19" y="751"/>
                            <mxPoint x="301" y="731"/>
                            <mxPoint x="341" y="742"/>
                        </Array>
                    </mxGeometry>
                </mxCell>
                <mxCell id="i2Tj7C190F3AamKAbhBU-28" style="edgeStyle=none;curved=1;rounded=0;orthogonalLoop=1;jettySize=auto;html=1;exitX=1;exitY=0.5;exitDx=0;exitDy=0;entryX=0;entryY=0.5;entryDx=0;entryDy=0;fontSize=12;startSize=8;endSize=8;" parent="1" source="i2Tj7C190F3AamKAbhBU-22" target="i2Tj7C190F3AamKAbhBU-26" edge="1">
                    <mxGeometry relative="1" as="geometry"/>
                </mxCell>
                <mxCell id="i2Tj7C190F3AamKAbhBU-22" value="http://ctms.kurumirwe.com.cn/" style="rounded=0;whiteSpace=wrap;html=1;fontSize=16;align=left;" parent="1" vertex="1">
                    <mxGeometry x="22.5" y="-200" width="397.5" height="20" as="geometry"/>
                </mxCell>
                <mxCell id="i2Tj7C190F3AamKAbhBU-29" style="edgeStyle=none;curved=1;rounded=0;orthogonalLoop=1;jettySize=auto;html=1;exitX=0;exitY=0.5;exitDx=0;exitDy=0;entryX=1;entryY=0.5;entryDx=0;entryDy=0;fontSize=12;startSize=8;endSize=8;dashed=1;dashPattern=1 1;" parent="1" source="i2Tj7C190F3AamKAbhBU-26" target="i2Tj7C190F3AamKAbhBU-1" edge="1">
                    <mxGeometry relative="1" as="geometry"/>
                </mxCell>
                <mxCell id="i2Tj7C190F3AamKAbhBU-40" value="NACOS&lt;br&gt;172.16.1.36" style="swimlane;whiteSpace=wrap;html=1;fontSize=16;startSize=40;swimlaneFillColor=none;dashed=1;strokeWidth=2;fillColor=#e51400;fontColor=#ffffff;strokeColor=#B20000;" parent="1" vertex="1">
                    <mxGeometry x="1500" y="-280" width="140" height="1600" as="geometry"/>
                </mxCell>
                <mxCell id="i2Tj7C190F3AamKAbhBU-43" value="t" style="whiteSpace=wrap;html=1;fontSize=16;" parent="i2Tj7C190F3AamKAbhBU-40" vertex="1">
                    <mxGeometry x="15" y="59.5" width="110" height="120.5" as="geometry"/>
                </mxCell>
                <mxCell id="i2Tj7C190F3AamKAbhBU-64" value="pre" style="whiteSpace=wrap;html=1;fontSize=16;" parent="i2Tj7C190F3AamKAbhBU-40" vertex="1">
                    <mxGeometry x="15" y="228" width="110" height="140" as="geometry"/>
                </mxCell>
                <mxCell id="i2Tj7C190F3AamKAbhBU-102" value="sunbeam_dev" style="whiteSpace=wrap;html=1;fontSize=16;strokeWidth=2;strokeColor=#CC0000;" parent="i2Tj7C190F3AamKAbhBU-40" vertex="1">
                    <mxGeometry x="15" y="480" width="110" height="540" as="geometry"/>
                </mxCell>
                <mxCell id="i2Tj7C190F3AamKAbhBU-44" style="edgeStyle=none;curved=1;rounded=0;orthogonalLoop=1;jettySize=auto;html=1;exitX=1;exitY=0.5;exitDx=0;exitDy=0;fontSize=12;startSize=8;endSize=8;entryX=0;entryY=0.5;entryDx=0;entryDy=0;fillColor=#e51400;strokeColor=#B20000;" parent="1" source="i2Tj7C190F3AamKAbhBU-34" target="i2Tj7C190F3AamKAbhBU-43" edge="1">
                    <mxGeometry relative="1" as="geometry">
                        <mxPoint x="1433" y="-178" as="targetPoint"/>
                    </mxGeometry>
                </mxCell>
                <mxCell id="i2Tj7C190F3AamKAbhBU-48" value="http://prectms.kurumirwe.com.cn/api/" style="rounded=0;whiteSpace=wrap;html=1;fontSize=16;align=left;" parent="1" vertex="1">
                    <mxGeometry x="22.5" y="-0.5" width="397.5" height="20" as="geometry"/>
                </mxCell>
                <mxCell id="i2Tj7C190F3AamKAbhBU-49" style="edgeStyle=none;curved=1;rounded=0;orthogonalLoop=1;jettySize=auto;html=1;fontSize=12;startSize=8;endSize=8;exitX=1;exitY=0.5;exitDx=0;exitDy=0;" parent="1" source="i2Tj7C190F3AamKAbhBU-48" target="i2Tj7C190F3AamKAbhBU-60" edge="1">
                    <mxGeometry relative="1" as="geometry">
                        <mxPoint x="331" y="-11.5" as="sourcePoint"/>
                    </mxGeometry>
                </mxCell>
                <mxCell id="i2Tj7C190F3AamKAbhBU-61" style="edgeStyle=none;curved=1;rounded=0;orthogonalLoop=1;jettySize=auto;html=1;exitX=1;exitY=0.5;exitDx=0;exitDy=0;entryX=0;entryY=0.5;entryDx=0;entryDy=0;fontSize=12;startSize=8;endSize=8;" parent="1" source="i2Tj7C190F3AamKAbhBU-62" target="i2Tj7C190F3AamKAbhBU-50" edge="1">
                    <mxGeometry relative="1" as="geometry"/>
                </mxCell>
                <mxCell id="i2Tj7C190F3AamKAbhBU-62" value="http://prectms.kurumirwe.com.cn/" style="rounded=0;whiteSpace=wrap;html=1;fontSize=16;align=left;" parent="1" vertex="1">
                    <mxGeometry x="22.5" y="-20.5" width="397.5" height="20" as="geometry"/>
                </mxCell>
                <mxCell id="i2Tj7C190F3AamKAbhBU-63" style="edgeStyle=none;curved=1;rounded=0;orthogonalLoop=1;jettySize=auto;html=1;exitX=0;exitY=0.5;exitDx=0;exitDy=0;entryX=1;entryY=0.5;entryDx=0;entryDy=0;fontSize=12;startSize=8;endSize=8;dashed=1;dashPattern=1 1;fillColor=#dae8fc;strokeColor=#000000;" parent="1" source="i2Tj7C190F3AamKAbhBU-50" target="i2Tj7C190F3AamKAbhBU-48" edge="1">
                    <mxGeometry relative="1" as="geometry"/>
                </mxCell>
                <mxCell id="i2Tj7C190F3AamKAbhBU-65" style="edgeStyle=none;curved=1;rounded=0;orthogonalLoop=1;jettySize=auto;html=1;fontSize=12;startSize=8;endSize=8;entryX=0;entryY=0.5;entryDx=0;entryDy=0;exitX=1;exitY=0.5;exitDx=0;exitDy=0;fillColor=#e51400;strokeColor=#B20000;" parent="1" source="i2Tj7C190F3AamKAbhBU-51" target="i2Tj7C190F3AamKAbhBU-64" edge="1">
                    <mxGeometry relative="1" as="geometry">
                        <mxPoint x="1433" as="targetPoint"/>
                        <mxPoint x="1213" y="-11" as="sourcePoint"/>
                    </mxGeometry>
                </mxCell>
                <mxCell id="i2Tj7C190F3AamKAbhBU-75" style="edgeStyle=none;curved=1;rounded=0;orthogonalLoop=1;jettySize=auto;html=1;exitX=1;exitY=0.5;exitDx=0;exitDy=0;fontSize=12;startSize=8;endSize=8;strokeWidth=1;" parent="1" source="i2Tj7C190F3AamKAbhBU-68" target="i2Tj7C190F3AamKAbhBU-67" edge="1">
                    <mxGeometry relative="1" as="geometry"/>
                </mxCell>
                <mxCell id="i2Tj7C190F3AamKAbhBU-8" value="http://questionnaire.kurumirwe.com.cn:8090/" style="whiteSpace=wrap;html=1;fontSize=16;align=left;" parent="1" vertex="1">
                    <mxGeometry x="20" y="1229.5" width="400" height="20" as="geometry"/>
                </mxCell>
                <mxCell id="i2Tj7C190F3AamKAbhBU-66" value="http://questionnaire.kurumirwe.com.cn:8092/" style="whiteSpace=wrap;html=1;fontSize=16;align=left;" parent="1" vertex="1">
                    <mxGeometry x="20" y="1249.5" width="400" height="20" as="geometry"/>
                </mxCell>
                <mxCell id="i2Tj7C190F3AamKAbhBU-68" value="http://questionnaire.kurumirwe.com.cn:8888/api/" style="whiteSpace=wrap;html=1;fontSize=16;align=left;" parent="1" vertex="1">
                    <mxGeometry x="20" y="1269.5" width="400" height="20" as="geometry"/>
                </mxCell>
                <mxCell id="i2Tj7C190F3AamKAbhBU-71" style="edgeStyle=none;curved=1;rounded=0;orthogonalLoop=1;jettySize=auto;html=1;exitX=1;exitY=0.5;exitDx=0;exitDy=0;entryX=0;entryY=0.5;entryDx=0;entryDy=0;fontSize=12;startSize=8;endSize=8;strokeWidth=1;" parent="1" source="i2Tj7C190F3AamKAbhBU-8" target="i2Tj7C190F3AamKAbhBU-69" edge="1">
                    <mxGeometry relative="1" as="geometry"/>
                </mxCell>
                <mxCell id="i2Tj7C190F3AamKAbhBU-72" style="edgeStyle=none;curved=1;rounded=0;orthogonalLoop=1;jettySize=auto;html=1;exitX=1;exitY=0.5;exitDx=0;exitDy=0;entryX=0;entryY=0.5;entryDx=0;entryDy=0;fontSize=12;startSize=8;endSize=8;strokeWidth=1;" parent="1" source="i2Tj7C190F3AamKAbhBU-66" target="i2Tj7C190F3AamKAbhBU-70" edge="1">
                    <mxGeometry relative="1" as="geometry"/>
                </mxCell>
                <mxCell id="i2Tj7C190F3AamKAbhBU-73" style="edgeStyle=none;curved=1;rounded=0;orthogonalLoop=1;jettySize=auto;html=1;exitX=0;exitY=0.75;exitDx=0;exitDy=0;entryX=1;entryY=0.5;entryDx=0;entryDy=0;fontSize=12;startSize=8;endSize=8;dashed=1;strokeWidth=1;dashPattern=8 8;" parent="1" source="i2Tj7C190F3AamKAbhBU-69" target="i2Tj7C190F3AamKAbhBU-68" edge="1">
                    <mxGeometry relative="1" as="geometry"/>
                </mxCell>
                <mxCell id="i2Tj7C190F3AamKAbhBU-74" style="edgeStyle=none;curved=1;rounded=0;orthogonalLoop=1;jettySize=auto;html=1;exitX=0;exitY=0.75;exitDx=0;exitDy=0;fontSize=12;startSize=8;endSize=8;entryX=1;entryY=0.5;entryDx=0;entryDy=0;dashed=1;strokeWidth=1;dashPattern=8 8;" parent="1" source="i2Tj7C190F3AamKAbhBU-70" target="i2Tj7C190F3AamKAbhBU-68" edge="1">
                    <mxGeometry relative="1" as="geometry">
                        <mxPoint x="431" y="1214.4999999999995" as="targetPoint"/>
                    </mxGeometry>
                </mxCell>
                <mxCell id="cCwPJ1tw8frTHu7wozhd-177" value="redis&lt;br&gt;172.16.1.73" style="swimlane;whiteSpace=wrap;html=1;fontSize=16;startSize=40;" parent="1" vertex="1">
                    <mxGeometry x="980" y="-420.5" width="200" height="100" as="geometry"/>
                </mxCell>
                <mxCell id="cCwPJ1tw8frTHu7wozhd-178" value="DB10" style="whiteSpace=wrap;html=1;fontSize=16;" parent="cCwPJ1tw8frTHu7wozhd-177" vertex="1">
                    <mxGeometry x="40" y="60" width="121" height="20" as="geometry"/>
                </mxCell>
                <mxCell id="cCwPJ1tw8frTHu7wozhd-176" value="mysql&lt;br&gt;172.16.1.80" style="swimlane;whiteSpace=wrap;html=1;fontSize=16;startSize=40;dashed=1;fillColor=#1ba1e2;strokeColor=#006EAF;fontColor=#ffffff;strokeWidth=2;" parent="1" vertex="1">
                    <mxGeometry x="1260" y="-280.75" width="200" height="1600.25" as="geometry"/>
                </mxCell>
                <mxCell id="cCwPJ1tw8frTHu7wozhd-187" value="phaseone_pre" style="whiteSpace=wrap;html=1;fontSize=16;" parent="cCwPJ1tw8frTHu7wozhd-176" vertex="1">
                    <mxGeometry x="20" y="318.5" width="160" height="21" as="geometry"/>
                </mxCell>
                <mxCell id="cCwPJ1tw8frTHu7wozhd-188" value="phaseone_test" style="whiteSpace=wrap;html=1;fontSize=16;" parent="cCwPJ1tw8frTHu7wozhd-176" vertex="1">
                    <mxGeometry x="20" y="139.5" width="160" height="21" as="geometry"/>
                </mxCell>
                <mxCell id="cCwPJ1tw8frTHu7wozhd-194" value="sys_pre" style="whiteSpace=wrap;html=1;fontSize=16;" parent="cCwPJ1tw8frTHu7wozhd-176" vertex="1">
                    <mxGeometry x="20" y="339.5" width="160" height="21" as="geometry"/>
                </mxCell>
                <mxCell id="cCwPJ1tw8frTHu7wozhd-195" value="sys_test" style="whiteSpace=wrap;html=1;fontSize=16;" parent="cCwPJ1tw8frTHu7wozhd-176" vertex="1">
                    <mxGeometry x="20" y="160.5" width="160" height="21" as="geometry"/>
                </mxCell>
                <mxCell id="cCwPJ1tw8frTHu7wozhd-197" value="questionnaire_test" style="whiteSpace=wrap;html=1;fontSize=16;" parent="cCwPJ1tw8frTHu7wozhd-176" vertex="1">
                    <mxGeometry x="20" y="1549.75" width="160" height="21" as="geometry"/>
                </mxCell>
                <mxCell id="cCwPJ1tw8frTHu7wozhd-182" value="insightec_dev" style="whiteSpace=wrap;html=1;fontSize=16;" parent="cCwPJ1tw8frTHu7wozhd-176" vertex="1">
                    <mxGeometry x="26" y="1362.25" width="160" height="21" as="geometry"/>
                </mxCell>
                <mxCell id="cCwPJ1tw8frTHu7wozhd-183" value="insightec_test" style="whiteSpace=wrap;html=1;fontSize=16;" parent="cCwPJ1tw8frTHu7wozhd-176" vertex="1">
                    <mxGeometry x="26" y="1341.25" width="160" height="21" as="geometry"/>
                </mxCell>
                <mxCell id="cCwPJ1tw8frTHu7wozhd-191" value="sunbeam_sys_dev" style="whiteSpace=wrap;html=1;fontSize=16;" parent="cCwPJ1tw8frTHu7wozhd-176" vertex="1">
                    <mxGeometry x="20" y="899.75" width="160" height="21" as="geometry"/>
                </mxCell>
                <mxCell id="cCwPJ1tw8frTHu7wozhd-284" style="edgeStyle=none;curved=1;rounded=0;orthogonalLoop=1;jettySize=auto;html=1;exitX=1;exitY=0.5;exitDx=0;exitDy=0;fontSize=12;startSize=8;endSize=8;fillColor=#1ba1e2;strokeColor=#006EAF;" parent="1" source="i2Tj7C190F3AamKAbhBU-33" target="cCwPJ1tw8frTHu7wozhd-188" edge="1">
                    <mxGeometry relative="1" as="geometry"/>
                </mxCell>
                <mxCell id="cCwPJ1tw8frTHu7wozhd-285" style="edgeStyle=elbowEdgeStyle;rounded=0;orthogonalLoop=1;jettySize=auto;html=1;exitX=0.5;exitY=1;exitDx=0;exitDy=0;entryX=0;entryY=0.5;entryDx=0;entryDy=0;fontSize=12;startSize=8;endSize=8;elbow=vertical;fillColor=#1ba1e2;strokeColor=#006EAF;" parent="1" source="i2Tj7C190F3AamKAbhBU-32" target="cCwPJ1tw8frTHu7wozhd-195" edge="1">
                    <mxGeometry relative="1" as="geometry">
                        <Array as="points">
                            <mxPoint x="1210" y="-110"/>
                            <mxPoint x="1120" y="-100"/>
                            <mxPoint x="1100" y="-110"/>
                            <mxPoint x="1240" y="-110"/>
                            <mxPoint x="1210" y="-100"/>
                            <mxPoint x="1180" y="-110.5"/>
                        </Array>
                    </mxGeometry>
                </mxCell>
                <mxCell id="cCwPJ1tw8frTHu7wozhd-288" style="edgeStyle=none;curved=1;rounded=0;orthogonalLoop=1;jettySize=auto;html=1;exitX=1;exitY=0.5;exitDx=0;exitDy=0;fontSize=12;startSize=8;endSize=8;fillColor=#1ba1e2;strokeColor=#006EAF;" parent="1" source="i2Tj7C190F3AamKAbhBU-55" target="cCwPJ1tw8frTHu7wozhd-187" edge="1">
                    <mxGeometry relative="1" as="geometry"/>
                </mxCell>
                <mxCell id="cCwPJ1tw8frTHu7wozhd-289" style="edgeStyle=elbowEdgeStyle;rounded=0;orthogonalLoop=1;jettySize=auto;html=1;exitX=0.5;exitY=1;exitDx=0;exitDy=0;fontSize=12;startSize=8;endSize=8;elbow=vertical;fillColor=#1ba1e2;strokeColor=#006EAF;" parent="1" source="i2Tj7C190F3AamKAbhBU-54" edge="1">
                    <mxGeometry relative="1" as="geometry">
                        <mxPoint x="1281" y="68.5" as="targetPoint"/>
                        <Array as="points">
                            <mxPoint x="1271" y="68.5"/>
                            <mxPoint x="1181" y="68.5"/>
                        </Array>
                    </mxGeometry>
                </mxCell>
                <mxCell id="cCwPJ1tw8frTHu7wozhd-290" style="edgeStyle=elbowEdgeStyle;rounded=0;orthogonalLoop=1;jettySize=auto;html=1;exitX=0.5;exitY=1;exitDx=0;exitDy=0;fontSize=12;startSize=8;endSize=8;elbow=vertical;fillColor=#1ba1e2;strokeColor=#006EAF;" parent="1" source="i2Tj7C190F3AamKAbhBU-52" edge="1">
                    <mxGeometry relative="1" as="geometry">
                        <mxPoint x="1281" y="68.5" as="targetPoint"/>
                        <Array as="points">
                            <mxPoint x="1271" y="68.5"/>
                            <mxPoint x="1271" y="70.5"/>
                            <mxPoint x="1161" y="68.5"/>
                        </Array>
                    </mxGeometry>
                </mxCell>
                <mxCell id="cCwPJ1tw8frTHu7wozhd-293" style="edgeStyle=none;curved=1;rounded=0;orthogonalLoop=1;jettySize=auto;html=1;exitX=1;exitY=0.5;exitDx=0;exitDy=0;entryX=0;entryY=0.5;entryDx=0;entryDy=0;fontSize=12;startSize=8;endSize=8;fillColor=#1ba1e2;strokeColor=#006EAF;" parent="1" source="i2Tj7C190F3AamKAbhBU-67" target="cCwPJ1tw8frTHu7wozhd-197" edge="1">
                    <mxGeometry relative="1" as="geometry"/>
                </mxCell>
                <mxCell id="cCwPJ1tw8frTHu7wozhd-295" style="edgeStyle=none;curved=1;rounded=0;orthogonalLoop=1;jettySize=auto;html=1;exitX=1;exitY=0.5;exitDx=0;exitDy=0;entryX=0;entryY=0.5;entryDx=0;entryDy=0;fontSize=12;startSize=8;endSize=8;fillColor=#1ba1e2;strokeColor=#006EAF;" parent="1" source="i2Tj7C190F3AamKAbhBU-76" target="cCwPJ1tw8frTHu7wozhd-183" edge="1">
                    <mxGeometry relative="1" as="geometry"/>
                </mxCell>
                <mxCell id="cCwPJ1tw8frTHu7wozhd-300" value="&lt;b&gt;&lt;font style=&quot;font-size: 18px;&quot;&gt;ctms测试环境&lt;/font&gt;&lt;/b&gt;" style="shape=curlyBracket;whiteSpace=wrap;html=1;rounded=1;labelPosition=left;verticalLabelPosition=middle;align=right;verticalAlign=middle;fontSize=16;size=0;" parent="1" vertex="1">
                    <mxGeometry x="-120" y="-250" width="240" height="160" as="geometry"/>
                </mxCell>
                <mxCell id="cCwPJ1tw8frTHu7wozhd-304" value="&lt;b&gt;&lt;font style=&quot;font-size: 18px;&quot;&gt;ctms演示环境&lt;/font&gt;&lt;/b&gt;" style="shape=curlyBracket;whiteSpace=wrap;html=1;rounded=1;labelPosition=left;verticalLabelPosition=middle;align=right;verticalAlign=middle;fontSize=16;size=0;" parent="1" vertex="1">
                    <mxGeometry x="-120" y="-80" width="240" height="160" as="geometry"/>
                </mxCell>
                <mxCell id="cCwPJ1tw8frTHu7wozhd-309" value="&lt;b&gt;&lt;font style=&quot;font-size: 18px;&quot;&gt;insightec&lt;/font&gt;&lt;/b&gt;" style="shape=curlyBracket;whiteSpace=wrap;html=1;rounded=1;labelPosition=left;verticalLabelPosition=middle;align=right;verticalAlign=middle;fontSize=16;size=0;" parent="1" vertex="1">
                    <mxGeometry x="-120" y="1010" width="276" height="95" as="geometry"/>
                </mxCell>
                <mxCell id="cCwPJ1tw8frTHu7wozhd-310" value="&lt;span style=&quot;font-size: 18px;&quot;&gt;&lt;b style=&quot;&quot;&gt;301量表&lt;/b&gt;&lt;/span&gt;" style="shape=curlyBracket;whiteSpace=wrap;html=1;rounded=1;labelPosition=left;verticalLabelPosition=middle;align=right;verticalAlign=middle;fontSize=16;size=0;" parent="1" vertex="1">
                    <mxGeometry x="-120" y="1189.5" width="240" height="140" as="geometry"/>
                </mxCell>
                <mxCell id="cCwPJ1tw8frTHu7wozhd-311" style="edgeStyle=none;curved=1;rounded=0;orthogonalLoop=1;jettySize=auto;html=1;exitX=1;exitY=0.5;exitDx=0;exitDy=0;entryX=0;entryY=0.5;entryDx=0;entryDy=0;fontSize=12;startSize=8;endSize=8;" parent="1" source="i2Tj7C190F3AamKAbhBU-7" target="cCwPJ1tw8frTHu7wozhd-297" edge="1">
                    <mxGeometry relative="1" as="geometry"/>
                </mxCell>
                <mxCell id="cCwPJ1tw8frTHu7wozhd-315" style="edgeStyle=none;curved=1;rounded=0;orthogonalLoop=1;jettySize=auto;html=1;exitX=1;exitY=0.5;exitDx=0;exitDy=0;fontSize=12;startSize=8;endSize=8;" parent="1" source="cCwPJ1tw8frTHu7wozhd-313" target="i2Tj7C190F3AamKAbhBU-76" edge="1">
                    <mxGeometry relative="1" as="geometry"/>
                </mxCell>
                <mxCell id="cCwPJ1tw8frTHu7wozhd-313" value="http://ins.kurumirwe.com.cn/api/" style="whiteSpace=wrap;html=1;fontSize=16;align=left;" parent="1" vertex="1">
                    <mxGeometry x="20" y="1060.5" width="400" height="20" as="geometry"/>
                </mxCell>
                <mxCell id="cCwPJ1tw8frTHu7wozhd-312" style="edgeStyle=none;curved=1;rounded=0;orthogonalLoop=1;jettySize=auto;html=1;exitX=0;exitY=0.5;exitDx=0;exitDy=0;fontSize=12;startSize=8;endSize=8;entryX=1;entryY=0.5;entryDx=0;entryDy=0;dashed=1;dashPattern=8 8;" parent="1" source="cCwPJ1tw8frTHu7wozhd-297" target="cCwPJ1tw8frTHu7wozhd-313" edge="1">
                    <mxGeometry relative="1" as="geometry">
                        <mxPoint x="650" y="1069.5" as="targetPoint"/>
                    </mxGeometry>
                </mxCell>
                <mxCell id="i2Tj7C190F3AamKAbhBU-11" value="http://sunbeam-cloud-dev.kurumirwe.com.cn/api/" style="rounded=0;whiteSpace=wrap;html=1;fontSize=16;align=left;" parent="1" vertex="1">
                    <mxGeometry x="20" y="710" width="400" height="20" as="geometry"/>
                </mxCell>
                <mxCell id="i2Tj7C190F3AamKAbhBU-101" style="edgeStyle=elbowEdgeStyle;rounded=0;orthogonalLoop=1;jettySize=auto;html=1;exitX=1;exitY=0.5;exitDx=0;exitDy=0;entryX=0.5;entryY=1;entryDx=0;entryDy=0;fontSize=12;startSize=8;endSize=8;elbow=vertical;" parent="1" source="i2Tj7C190F3AamKAbhBU-11" target="i2Tj7C190F3AamKAbhBU-100" edge="1">
                    <mxGeometry relative="1" as="geometry">
                        <Array as="points">
                            <mxPoint x="750" y="720"/>
                            <mxPoint x="852.5" y="670"/>
                        </Array>
                    </mxGeometry>
                </mxCell>
                <mxCell id="Ktfw91KOfAH1X8dlvHvP-8" value="&lt;font size=&quot;1&quot;&gt;&lt;b style=&quot;font-size: 15px;&quot;&gt;接口Gateway&lt;/b&gt;&lt;/font&gt;" style="shape=curlyBracket;whiteSpace=wrap;html=1;rounded=1;labelPosition=left;verticalLabelPosition=middle;align=right;verticalAlign=middle;fontSize=16;size=0;" parent="1" vertex="1">
                    <mxGeometry x="12.5" y="690" width="117.5" height="60" as="geometry"/>
                </mxCell>
                <mxCell id="cCwPJ1tw8frTHu7wozhd-292" style="edgeStyle=elbowEdgeStyle;rounded=0;orthogonalLoop=1;jettySize=auto;html=1;exitX=0.5;exitY=0;exitDx=0;exitDy=0;fontSize=12;startSize=8;endSize=8;elbow=vertical;fillColor=#1ba1e2;strokeColor=#006EAF;" parent="1" source="i2Tj7C190F3AamKAbhBU-94" edge="1">
                    <mxGeometry relative="1" as="geometry">
                        <mxPoint x="1280" y="630" as="targetPoint"/>
                        <Array as="points">
                            <mxPoint x="1170" y="630"/>
                            <mxPoint x="1202.5" y="635"/>
                        </Array>
                    </mxGeometry>
                </mxCell>
                <mxCell id="i2Tj7C190F3AamKAbhBU-114" style="edgeStyle=none;curved=1;rounded=0;orthogonalLoop=1;jettySize=auto;html=1;exitX=0.5;exitY=0;exitDx=0;exitDy=0;entryX=1;entryY=0.5;entryDx=0;entryDy=0;fontSize=12;startSize=8;endSize=8;dashed=1;dashPattern=1 1;" parent="1" source="i2Tj7C190F3AamKAbhBU-113" target="i2Tj7C190F3AamKAbhBU-11" edge="1">
                    <mxGeometry relative="1" as="geometry"/>
                </mxCell>
                <mxCell id="FqNNwtzINjokE-F-5kMg-4" style="edgeStyle=orthogonalEdgeStyle;rounded=0;orthogonalLoop=1;jettySize=auto;html=1;exitX=0.5;exitY=0;exitDx=0;exitDy=0;strokeColor=#10739e;fillColor=#b1ddf0;entryX=0;entryY=0.5;entryDx=0;entryDy=0;" parent="1" source="i2Tj7C190F3AamKAbhBU-92" target="cCwPJ1tw8frTHu7wozhd-191" edge="1">
                    <mxGeometry relative="1" as="geometry">
                        <mxPoint x="1270" y="620" as="targetPoint"/>
                        <Array as="points">
                            <mxPoint x="1117" y="630"/>
                            <mxPoint x="1280" y="630"/>
                        </Array>
                    </mxGeometry>
                </mxCell>
                <mxCell id="i2Tj7C190F3AamKAbhBU-152" style="edgeStyle=orthogonalEdgeStyle;rounded=0;orthogonalLoop=1;jettySize=auto;html=1;fontSize=12;startSize=8;endSize=8;exitX=0.5;exitY=1;exitDx=0;exitDy=0;elbow=vertical;fillColor=#e51400;strokeColor=#B20000;entryX=-0.003;entryY=0.668;entryDx=0;entryDy=0;entryPerimeter=0;" parent="1" source="cCwPJ1tw8frTHu7wozhd-8" target="i2Tj7C190F3AamKAbhBU-102" edge="1">
                    <mxGeometry relative="1" as="geometry">
                        <mxPoint x="1223" y="391" as="sourcePoint"/>
                        <mxPoint x="1490" y="570" as="targetPoint"/>
                        <Array as="points">
                            <mxPoint x="1070" y="560"/>
                            <mxPoint x="1515" y="560"/>
                        </Array>
                    </mxGeometry>
                </mxCell>
                <mxCell id="cCwPJ1tw8frTHu7wozhd-286" style="edgeStyle=elbowEdgeStyle;rounded=0;orthogonalLoop=1;jettySize=auto;html=1;exitX=0.5;exitY=1;exitDx=0;exitDy=0;fontSize=12;startSize=8;endSize=8;elbow=vertical;fillColor=#1ba1e2;strokeColor=#006EAF;entryX=0;entryY=0.5;entryDx=0;entryDy=0;" parent="1" source="i2Tj7C190F3AamKAbhBU-31" target="cCwPJ1tw8frTHu7wozhd-195" edge="1">
                    <mxGeometry relative="1" as="geometry">
                        <mxPoint x="1279" y="-109.5" as="targetPoint"/>
                        <Array as="points">
                            <mxPoint x="1190" y="-109.5"/>
                            <mxPoint x="1070" y="-89.5"/>
                            <mxPoint x="1060" y="-109.5"/>
                            <mxPoint x="1060" y="-110.5"/>
                            <mxPoint x="1159" y="-109.5"/>
                        </Array>
                    </mxGeometry>
                </mxCell>
                <mxCell id="i2Tj7C190F3AamKAbhBU-5" value="http://integrateddev.kurumirwe.com.cn/" style="rounded=0;whiteSpace=wrap;html=1;fontSize=16;align=left;" parent="1" vertex="1">
                    <mxGeometry x="20" y="250" width="400" height="20" as="geometry"/>
                </mxCell>
                <mxCell id="i2Tj7C190F3AamKAbhBU-12" value="http://clinicaldev.kurumirwe.com.cn/" style="rounded=0;whiteSpace=wrap;html=1;fontSize=16;align=left;" parent="1" vertex="1">
                    <mxGeometry x="20" y="310" width="400" height="20" as="geometry"/>
                </mxCell>
                <mxCell id="i2Tj7C190F3AamKAbhBU-84" value="http://integrateddev.kurumirwe.com.cn/api/" style="rounded=0;whiteSpace=wrap;html=1;fontSize=16;align=left;" parent="1" vertex="1">
                    <mxGeometry x="20" y="270" width="400" height="20" as="geometry"/>
                </mxCell>
                <mxCell id="i2Tj7C190F3AamKAbhBU-86" value="http://clinicaldev.kurumirwe.com.cn/api/" style="rounded=0;whiteSpace=wrap;html=1;fontSize=16;align=left;" parent="1" vertex="1">
                    <mxGeometry x="20" y="330" width="400" height="20" as="geometry"/>
                </mxCell>
                <mxCell id="i2Tj7C190F3AamKAbhBU-124" value="http://dev.rwm.kurumirwe.com.cn/" style="rounded=0;whiteSpace=wrap;html=1;fontSize=16;align=left;" parent="1" vertex="1">
                    <mxGeometry x="20" y="370" width="397.5" height="20" as="geometry"/>
                </mxCell>
                <mxCell id="i2Tj7C190F3AamKAbhBU-125" value="http://dev.rwm.kurumirwe.com.cn/api/" style="rounded=0;whiteSpace=wrap;html=1;fontSize=16;align=left;" parent="1" vertex="1">
                    <mxGeometry x="20" y="390" width="397.5" height="20" as="geometry"/>
                </mxCell>
                <mxCell id="Ktfw91KOfAH1X8dlvHvP-3" value="&lt;b style=&quot;&quot;&gt;&lt;font style=&quot;font-size: 15px;&quot;&gt;研究型病房&lt;/font&gt;&lt;/b&gt;" style="shape=curlyBracket;whiteSpace=wrap;html=1;rounded=1;labelPosition=left;verticalLabelPosition=middle;align=right;verticalAlign=middle;fontSize=16;size=0;" parent="1" vertex="1">
                    <mxGeometry x="10" y="360" width="130" height="60" as="geometry"/>
                </mxCell>
                <mxCell id="Ktfw91KOfAH1X8dlvHvP-5" value="&lt;b style=&quot;&quot;&gt;&lt;font style=&quot;font-size: 15px;&quot;&gt;一体化&lt;/font&gt;&lt;/b&gt;" style="shape=curlyBracket;whiteSpace=wrap;html=1;rounded=1;labelPosition=left;verticalLabelPosition=middle;align=right;verticalAlign=middle;fontSize=16;size=0;" parent="1" vertex="1">
                    <mxGeometry x="10" y="240" width="130" height="60" as="geometry"/>
                </mxCell>
                <mxCell id="Ktfw91KOfAH1X8dlvHvP-6" value="&lt;b style=&quot;&quot;&gt;&lt;font style=&quot;font-size: 15px;&quot;&gt;机构信息化&lt;/font&gt;&lt;/b&gt;" style="shape=curlyBracket;whiteSpace=wrap;html=1;rounded=1;labelPosition=left;verticalLabelPosition=middle;align=right;verticalAlign=middle;fontSize=16;size=0;" parent="1" vertex="1">
                    <mxGeometry x="10" y="300" width="130" height="60" as="geometry"/>
                </mxCell>
                <mxCell id="Ktfw91KOfAH1X8dlvHvP-4" value="&lt;b style=&quot;&quot;&gt;&lt;font style=&quot;font-size: 15px;&quot;&gt;量表&lt;/font&gt;&lt;/b&gt;" style="shape=curlyBracket;whiteSpace=wrap;html=1;rounded=1;labelPosition=left;verticalLabelPosition=middle;align=right;verticalAlign=middle;fontSize=16;size=0;" parent="1" vertex="1">
                    <mxGeometry x="10" y="480" width="130" height="60" as="geometry"/>
                </mxCell>
                <mxCell id="i2Tj7C190F3AamKAbhBU-10" value="http://surveydev.kurumirwe.com.cn/" style="rounded=0;whiteSpace=wrap;html=1;fontSize=16;align=left;" parent="1" vertex="1">
                    <mxGeometry x="20" y="490" width="400" height="20" as="geometry"/>
                </mxCell>
                <mxCell id="i2Tj7C190F3AamKAbhBU-85" value="http://surveydev.kurumirwe.com.cn/api/" style="rounded=0;whiteSpace=wrap;html=1;fontSize=16;align=left;" parent="1" vertex="1">
                    <mxGeometry x="20" y="510" width="400" height="20" as="geometry"/>
                </mxCell>
                <mxCell id="Ktfw91KOfAH1X8dlvHvP-7" value="&lt;font size=&quot;1&quot;&gt;&lt;b style=&quot;font-size: 15px;&quot;&gt;远程监察&lt;/b&gt;&lt;/font&gt;" style="shape=curlyBracket;whiteSpace=wrap;html=1;rounded=1;labelPosition=left;verticalLabelPosition=middle;align=right;verticalAlign=middle;fontSize=16;size=0;" parent="1" vertex="1">
                    <mxGeometry x="10" y="420" width="130" height="60" as="geometry"/>
                </mxCell>
                <mxCell id="i2Tj7C190F3AamKAbhBU-6" value="http://remote-monitoringdev.kurumirwe.com.cn/" style="rounded=0;whiteSpace=wrap;html=1;fontSize=16;align=left;" parent="1" vertex="1">
                    <mxGeometry x="20" y="430" width="400" height="20" as="geometry"/>
                </mxCell>
                <mxCell id="i2Tj7C190F3AamKAbhBU-87" value="http://remote-monitoringdev.kurumirwe.com.cn/api/" style="rounded=0;whiteSpace=wrap;html=1;fontSize=16;align=left;" parent="1" vertex="1">
                    <mxGeometry x="20" y="450" width="400" height="20" as="geometry"/>
                </mxCell>
                <mxCell id="i2Tj7C190F3AamKAbhBU-110" style="edgeStyle=none;curved=1;rounded=0;orthogonalLoop=1;jettySize=auto;html=1;exitX=1;exitY=0.5;exitDx=0;exitDy=0;fontSize=12;startSize=8;endSize=8;entryX=0;entryY=0.5;entryDx=0;entryDy=0;" parent="1" source="i2Tj7C190F3AamKAbhBU-5" target="i2Tj7C190F3AamKAbhBU-107" edge="1">
                    <mxGeometry relative="1" as="geometry"/>
                </mxCell>
                <mxCell id="i2Tj7C190F3AamKAbhBU-118" style="edgeStyle=none;curved=1;rounded=0;orthogonalLoop=1;jettySize=auto;html=1;exitX=1;exitY=0.5;exitDx=0;exitDy=0;entryX=0;entryY=0.5;entryDx=0;entryDy=0;fontSize=12;startSize=8;endSize=8;" parent="1" source="i2Tj7C190F3AamKAbhBU-12" target="i2Tj7C190F3AamKAbhBU-104" edge="1">
                    <mxGeometry relative="1" as="geometry"/>
                </mxCell>
                <mxCell id="i2Tj7C190F3AamKAbhBU-111" style="edgeStyle=none;curved=1;rounded=0;orthogonalLoop=1;jettySize=auto;html=1;exitX=0;exitY=0.5;exitDx=0;exitDy=0;entryX=1;entryY=0.5;entryDx=0;entryDy=0;fontSize=12;startSize=8;endSize=8;dashed=1;dashPattern=8 8;" parent="1" source="i2Tj7C190F3AamKAbhBU-107" target="i2Tj7C190F3AamKAbhBU-84" edge="1">
                    <mxGeometry relative="1" as="geometry"/>
                </mxCell>
                <mxCell id="i2Tj7C190F3AamKAbhBU-112" style="edgeStyle=none;curved=1;rounded=0;orthogonalLoop=1;jettySize=auto;html=1;exitX=1;exitY=0.5;exitDx=0;exitDy=0;entryX=0.5;entryY=0;entryDx=0;entryDy=0;fontSize=12;startSize=8;endSize=8;dashed=1;dashPattern=1 4;" parent="1" source="i2Tj7C190F3AamKAbhBU-84" target="i2Tj7C190F3AamKAbhBU-113" edge="1">
                    <mxGeometry relative="1" as="geometry"/>
                </mxCell>
                <mxCell id="i2Tj7C190F3AamKAbhBU-119" style="edgeStyle=none;curved=1;rounded=0;orthogonalLoop=1;jettySize=auto;html=1;exitX=0;exitY=0.5;exitDx=0;exitDy=0;entryX=1;entryY=0.5;entryDx=0;entryDy=0;fontSize=12;startSize=8;endSize=8;dashed=1;dashPattern=8 8;" parent="1" source="i2Tj7C190F3AamKAbhBU-104" target="i2Tj7C190F3AamKAbhBU-86" edge="1">
                    <mxGeometry relative="1" as="geometry"/>
                </mxCell>
                <mxCell id="i2Tj7C190F3AamKAbhBU-120" style="edgeStyle=none;curved=1;rounded=0;orthogonalLoop=1;jettySize=auto;html=1;exitX=1;exitY=0.5;exitDx=0;exitDy=0;fontSize=12;startSize=8;endSize=8;dashed=1;dashPattern=1 4;" parent="1" source="i2Tj7C190F3AamKAbhBU-86" target="i2Tj7C190F3AamKAbhBU-113" edge="1">
                    <mxGeometry relative="1" as="geometry">
                        <mxPoint x="471" y="460" as="targetPoint"/>
                    </mxGeometry>
                </mxCell>
                <mxCell id="i2Tj7C190F3AamKAbhBU-128" style="edgeStyle=none;curved=1;rounded=0;orthogonalLoop=1;jettySize=auto;html=1;exitX=1;exitY=0.5;exitDx=0;exitDy=0;entryX=0;entryY=0.5;entryDx=0;entryDy=0;fontSize=12;startSize=8;endSize=8;" parent="1" source="i2Tj7C190F3AamKAbhBU-124" target="i2Tj7C190F3AamKAbhBU-108" edge="1">
                    <mxGeometry relative="1" as="geometry"/>
                </mxCell>
                <mxCell id="i2Tj7C190F3AamKAbhBU-129" style="edgeStyle=none;curved=1;rounded=0;orthogonalLoop=1;jettySize=auto;html=1;exitX=0;exitY=0.5;exitDx=0;exitDy=0;fontSize=12;startSize=8;endSize=8;entryX=1;entryY=0.5;entryDx=0;entryDy=0;dashed=1;dashPattern=8 8;" parent="1" source="i2Tj7C190F3AamKAbhBU-108" target="i2Tj7C190F3AamKAbhBU-125" edge="1">
                    <mxGeometry relative="1" as="geometry"/>
                </mxCell>
                <mxCell id="i2Tj7C190F3AamKAbhBU-130" style="edgeStyle=none;curved=1;rounded=0;orthogonalLoop=1;jettySize=auto;html=1;exitX=1;exitY=0.5;exitDx=0;exitDy=0;entryX=0.5;entryY=0;entryDx=0;entryDy=0;fontSize=12;startSize=8;endSize=8;dashed=1;dashPattern=1 4;" parent="1" source="i2Tj7C190F3AamKAbhBU-125" target="i2Tj7C190F3AamKAbhBU-113" edge="1">
                    <mxGeometry relative="1" as="geometry"/>
                </mxCell>
                <mxCell id="i2Tj7C190F3AamKAbhBU-115" style="edgeStyle=none;curved=1;rounded=0;orthogonalLoop=1;jettySize=auto;html=1;exitX=1;exitY=0.5;exitDx=0;exitDy=0;entryX=0;entryY=0.5;entryDx=0;entryDy=0;fontSize=12;startSize=8;endSize=8;" parent="1" source="i2Tj7C190F3AamKAbhBU-10" target="i2Tj7C190F3AamKAbhBU-106" edge="1">
                    <mxGeometry relative="1" as="geometry"/>
                </mxCell>
                <mxCell id="i2Tj7C190F3AamKAbhBU-116" style="edgeStyle=none;curved=1;rounded=0;orthogonalLoop=1;jettySize=auto;html=1;exitX=0;exitY=0.5;exitDx=0;exitDy=0;entryX=1;entryY=0.5;entryDx=0;entryDy=0;fontSize=12;startSize=8;endSize=8;dashed=1;dashPattern=1 1;" parent="1" source="i2Tj7C190F3AamKAbhBU-106" target="i2Tj7C190F3AamKAbhBU-85" edge="1">
                    <mxGeometry relative="1" as="geometry"/>
                </mxCell>
                <mxCell id="i2Tj7C190F3AamKAbhBU-117" style="edgeStyle=none;curved=1;rounded=0;orthogonalLoop=1;jettySize=auto;html=1;exitX=1;exitY=0.5;exitDx=0;exitDy=0;entryX=0.5;entryY=0;entryDx=0;entryDy=0;fontSize=12;startSize=8;endSize=8;dashed=1;dashPattern=1 1;" parent="1" source="i2Tj7C190F3AamKAbhBU-85" target="i2Tj7C190F3AamKAbhBU-113" edge="1">
                    <mxGeometry relative="1" as="geometry"/>
                </mxCell>
                <mxCell id="i2Tj7C190F3AamKAbhBU-121" style="edgeStyle=none;curved=1;rounded=0;orthogonalLoop=1;jettySize=auto;html=1;exitX=1;exitY=0.5;exitDx=0;exitDy=0;entryX=0;entryY=0.5;entryDx=0;entryDy=0;fontSize=12;startSize=8;endSize=8;" parent="1" source="i2Tj7C190F3AamKAbhBU-6" target="i2Tj7C190F3AamKAbhBU-109" edge="1">
                    <mxGeometry relative="1" as="geometry"/>
                </mxCell>
                <mxCell id="i2Tj7C190F3AamKAbhBU-122" style="edgeStyle=none;curved=1;rounded=0;orthogonalLoop=1;jettySize=auto;html=1;exitX=0;exitY=0.5;exitDx=0;exitDy=0;entryX=1;entryY=0.5;entryDx=0;entryDy=0;fontSize=12;startSize=8;endSize=8;dashed=1;dashPattern=8 8;" parent="1" source="i2Tj7C190F3AamKAbhBU-109" target="i2Tj7C190F3AamKAbhBU-87" edge="1">
                    <mxGeometry relative="1" as="geometry"/>
                </mxCell>
                <mxCell id="i2Tj7C190F3AamKAbhBU-123" style="edgeStyle=none;curved=1;rounded=0;orthogonalLoop=1;jettySize=auto;html=1;exitX=1;exitY=0.5;exitDx=0;exitDy=0;entryX=0.5;entryY=0;entryDx=0;entryDy=0;fontSize=12;startSize=8;endSize=8;dashed=1;dashPattern=1 4;" parent="1" source="i2Tj7C190F3AamKAbhBU-87" target="i2Tj7C190F3AamKAbhBU-113" edge="1">
                    <mxGeometry relative="1" as="geometry"/>
                </mxCell>
                <mxCell id="RKK9JBQGs--92WGz02i5-1" style="edgeStyle=orthogonalEdgeStyle;rounded=0;orthogonalLoop=1;jettySize=auto;html=1;fontSize=12;startSize=8;endSize=8;exitX=0.5;exitY=0;exitDx=0;exitDy=0;elbow=vertical;fillColor=#e51400;strokeColor=#B20000;entryX=0.009;entryY=0.667;entryDx=0;entryDy=0;entryPerimeter=0;" parent="1" source="i2Tj7C190F3AamKAbhBU-91" target="i2Tj7C190F3AamKAbhBU-102" edge="1">
                    <mxGeometry relative="1" as="geometry">
                        <mxPoint x="1080" y="549.8699999999999" as="sourcePoint"/>
                        <mxPoint x="1524.67" y="570.72" as="targetPoint"/>
                        <Array as="points">
                            <mxPoint x="1080" y="560"/>
                        </Array>
                    </mxGeometry>
                </mxCell>
                <mxCell id="cCwPJ1tw8frTHu7wozhd-305" value="&lt;span style=&quot;font-size: 18px;&quot;&gt;&lt;b style=&quot;&quot;&gt;临床研究一体化&lt;br&gt;、机构信息化&lt;br&gt;、开发测试环境&lt;/b&gt;&lt;/span&gt;" style="shape=curlyBracket;whiteSpace=wrap;html=1;rounded=1;labelPosition=left;verticalLabelPosition=middle;align=right;verticalAlign=middle;fontSize=16;size=0;" parent="1" vertex="1">
                    <mxGeometry x="-120" y="190" width="240" height="590" as="geometry"/>
                </mxCell>
            </root>
        </mxGraphModel>
    </diagram>
</mxfile>